<svg width="10" height="6" viewBox="0 0 10 6" fill="none" xmlns="http://www.w3.org/2000/svg">
<path d="M9.4997 4.76837e-07L0.499443 4.76837e-07C0.40832 0.000229836 0.319 0.020371 0.241098 0.0582557C0.163196 0.0961409 0.0996609 0.150335 0.057333 0.215005C0.0150051 0.279675 -0.00451374 0.352373 0.000878334 0.425272C0.00626945 0.498171 0.0363674 0.568511 0.0879316 0.628722L4.58806 5.83801C4.77456 6.054 5.22358 6.054 5.41058 5.83801L9.91071 0.628722C9.9628 0.568637 9.99335 0.498261 9.99903 0.425241C10.0047 0.352221 9.98532 0.279348 9.94295 0.21454C9.90059 0.149733 9.83687 0.0954695 9.75872 0.0576458C9.68058 0.0198226 9.59099 -0.000114441 9.4997 4.76837e-07Z" fill="#6CFFFD"/>
</svg>
