<svg width="42" height="42" viewBox="0 0 42 42" fill="none" xmlns="http://www.w3.org/2000/svg">
<rect width="42" height="42" rx="21" fill="white" fill-opacity="0.1"/>
<rect x="0.5" y="0.5" width="41" height="41" rx="20.5" stroke="white" stroke-opacity="0.05"/>
<path d="M16.469 10C12.918 10 10 12.914 10 16.469V25.531C10 29.082 12.914 32 16.469 32H25.531C29.082 32 32 29.086 32 25.531V16.47C32 12.918 29.086 10 25.531 10H16.469ZM16.469 12H25.531C26.1181 11.9992 26.6996 12.1143 27.2421 12.3386C27.7847 12.5629 28.2777 12.892 28.6928 13.3072C29.108 13.7223 29.4371 14.2153 29.6614 14.7579C29.8857 15.3004 30.0008 15.8819 30 16.469V25.531C30.0008 26.1181 29.8857 26.6996 29.6614 27.2421C29.4371 27.7847 29.108 28.2777 28.6928 28.6928C28.2777 29.108 27.7847 29.4371 27.2421 29.6614C26.6996 29.8857 26.1181 30.0008 25.531 30H16.47C15.8828 30.0009 15.3012 29.886 14.7585 29.6617C14.2159 29.4375 13.7228 29.1083 13.3075 28.6932C12.8923 28.278 12.563 27.785 12.3387 27.2424C12.1143 26.6998 11.9992 26.1182 12 25.531V16.47C11.9991 15.8828 12.114 15.3012 12.3383 14.7585C12.5625 14.2159 12.8917 13.7228 13.3068 13.3075C13.722 12.8923 14.215 12.563 14.7576 12.3387C15.3002 12.1143 15.8818 11.9992 16.469 12ZM26.906 14.188C26.7869 14.1875 26.6688 14.2105 26.5587 14.2559C26.4485 14.3012 26.3484 14.3679 26.2642 14.4522C26.1799 14.5364 26.1132 14.6365 26.0679 14.7467C26.0225 14.8568 25.9995 14.9749 26 15.094C26 15.598 26.402 16 26.906 16C27.0252 16.0007 27.1434 15.9777 27.2536 15.9324C27.3639 15.8871 27.4641 15.8204 27.5485 15.7362C27.6328 15.6519 27.6996 15.5518 27.745 15.4416C27.7904 15.3313 27.8135 15.2132 27.813 15.094C27.8135 14.9748 27.7904 14.8567 27.745 14.7464C27.6996 14.6362 27.6328 14.5361 27.5485 14.4518C27.4641 14.3676 27.3639 14.3009 27.2536 14.2556C27.1434 14.2103 27.0252 14.1873 26.906 14.188ZM21 15C17.7 15 15 17.7 15 21C15 24.3 17.7 27 21 27C24.3 27 27 24.3 27 21C27 17.7 24.3 15 21 15ZM21 17C23.223 17 25 18.777 25 21C25 23.223 23.223 25 21 25C18.777 25 17 23.223 17 21C17 18.777 18.777 17 21 17Z" fill="white"/>
</svg>
