<svg width="22" height="22" viewBox="0 0 22 22" fill="none" xmlns="http://www.w3.org/2000/svg">
<path d="M6.21778 9.92444C7.49778 12.44 9.56 14.4933 12.0756 15.7822L14.0311 13.8267C14.2711 13.5867 14.6267 13.5067 14.9378 13.6133C15.9333 13.9422 17.0089 14.12 18.1111 14.12C18.6 14.12 19 14.52 19 15.0089V18.1111C19 18.6 18.6 19 18.1111 19C9.76444 19 3 12.2356 3 3.88889C3 3.4 3.4 3 3.88889 3H7C7.48889 3 7.88889 3.4 7.88889 3.88889C7.88889 5 8.06667 6.06667 8.39556 7.06222C8.49333 7.37333 8.42222 7.72 8.17333 7.96889L6.21778 9.92444Z" fill="#FF5A00"/>
</svg>
