<svg width="42" height="42" viewBox="0 0 42 42" fill="none" xmlns="http://www.w3.org/2000/svg">
<rect width="42" height="42" rx="21" fill="white" fill-opacity="0.1"/>
<rect x="0.5" y="0.5" width="41" height="41" rx="20.5" stroke="white" stroke-opacity="0.05"/>
<path d="M28.2973 10.0023C28.0132 10.0243 27.7344 10.0952 27.4717 10.2124H27.4682C27.216 10.3188 26.0171 10.8559 24.1944 11.67L17.6626 14.5994C12.9757 16.7006 8.36849 18.7697 8.36849 18.7697L8.42335 18.7471C8.42335 18.7471 8.1057 18.8583 7.77389 19.1005C7.5689 19.2394 7.39251 19.4211 7.25539 19.6347C7.09258 19.8891 6.96163 20.2783 7.01029 20.6806C7.08992 21.3609 7.50402 21.7689 7.80132 21.9941C8.10216 22.2221 8.38884 22.3286 8.38884 22.3286H8.39592L12.7165 23.8785C12.9103 24.5409 14.0331 28.4719 14.303 29.3774C14.4622 29.9182 14.6171 30.2565 14.8109 30.5147C14.9046 30.6466 15.0144 30.7568 15.1462 30.8454C15.2147 30.8879 15.2878 30.9214 15.3639 30.9453L15.3196 30.934C15.3329 30.9377 15.3435 30.949 15.3532 30.9528C15.3886 30.9632 15.4125 30.9669 15.4577 30.9745C16.1416 31.195 16.6911 30.7427 16.6911 30.7427L16.7221 30.7163L19.273 28.243L23.5484 31.7358L23.6458 31.7801C24.5368 32.1966 25.4393 31.9648 25.9162 31.5558C26.3967 31.1441 26.5834 30.6174 26.5834 30.6174L26.6143 30.5326L29.9182 12.5086C30.012 12.0639 30.0359 11.6474 29.9324 11.2432C29.8256 10.8341 29.5792 10.4822 29.2414 10.2567C28.9577 10.073 28.6288 9.9844 28.2973 10.0023ZM28.2079 11.9338C28.2044 11.9932 28.215 11.9866 28.1902 12.1006V12.111L24.9173 29.9475C24.9031 29.9729 24.8792 30.0285 24.8137 30.0841C24.7447 30.1425 24.6899 30.1792 24.4023 30.0577L19.173 25.7884L16.0142 28.8545L16.6778 24.3412L25.2216 15.8611C25.5738 15.5124 25.4561 15.4389 25.4561 15.4389C25.4809 15.0112 24.9243 15.3136 24.9243 15.3136L14.1508 22.4209L14.1472 22.402L8.98344 20.5506V20.5468L8.97016 20.544C8.97922 20.5408 8.98808 20.537 8.99671 20.5327L9.02502 20.5176L9.05245 20.5072C9.05245 20.5072 13.6632 18.4381 18.3501 16.3369C20.6967 15.2844 23.0609 14.2244 24.8792 13.4065C25.9576 12.9232 27.0371 12.4426 28.1176 11.9649C28.1902 11.9348 28.1557 11.9338 28.2079 11.9338Z" fill="white"/>
</svg>
